<mxfile host="Electron" agent="Mozilla/5.0 (Windows NT 10.0; Win64; x64) AppleWebKit/537.36 (KHTML, like Gecko) draw.io/26.0.16 Chrome/132.0.6834.196 Electron/34.2.0 Safari/537.36" version="26.0.16">
  <diagram name="Page-1" id="Ln59eg0XmFNMV8ph8QU6">
    <mxGraphModel dx="1837" dy="1723" grid="1" gridSize="10" guides="1" tooltips="1" connect="1" arrows="1" fold="1" page="1" pageScale="1" pageWidth="850" pageHeight="1100" math="0" shadow="0">
      <root>
        <mxCell id="0" />
        <mxCell id="1" parent="0" />
        <mxCell id="U6tUr1Qk7Yr2OwYIVVNg-6" value="VecPAC - Architecture" style="text;html=1;align=center;verticalAlign=middle;whiteSpace=wrap;rounded=0;" parent="1" vertex="1">
          <mxGeometry x="190" y="-320" width="70" height="30" as="geometry" />
        </mxCell>
        <mxCell id="U6tUr1Qk7Yr2OwYIVVNg-51" value="" style="rounded=0;whiteSpace=wrap;html=1;fillColor=none;" parent="1" vertex="1">
          <mxGeometry x="260" y="-320" width="510" height="430" as="geometry" />
        </mxCell>
        <mxCell id="U6tUr1Qk7Yr2OwYIVVNg-9" value="Data Memory" style="rounded=0;whiteSpace=wrap;html=1;rotation=0;direction=west;horizontal=0;" parent="1" vertex="1">
          <mxGeometry x="272.6209523809524" y="-310" width="44.76190476190476" height="400" as="geometry" />
        </mxCell>
        <mxCell id="U6tUr1Qk7Yr2OwYIVVNg-52" style="edgeStyle=orthogonalEdgeStyle;rounded=0;orthogonalLoop=1;jettySize=auto;html=1;entryX=0;entryY=0.5;entryDx=0;entryDy=0;" parent="1" source="U6tUr1Qk7Yr2OwYIVVNg-10" target="U6tUr1Qk7Yr2OwYIVVNg-11" edge="1">
          <mxGeometry relative="1" as="geometry" />
        </mxCell>
        <mxCell id="U6tUr1Qk7Yr2OwYIVVNg-54" style="edgeStyle=orthogonalEdgeStyle;rounded=0;orthogonalLoop=1;jettySize=auto;html=1;entryX=0.5;entryY=0;entryDx=0;entryDy=0;" parent="1" source="U6tUr1Qk7Yr2OwYIVVNg-10" target="U6tUr1Qk7Yr2OwYIVVNg-24" edge="1">
          <mxGeometry relative="1" as="geometry" />
        </mxCell>
        <mxCell id="U6tUr1Qk7Yr2OwYIVVNg-10" value="vTile" style="rounded=0;whiteSpace=wrap;html=1;" parent="1" vertex="1">
          <mxGeometry x="357.8542857142857" y="-300" width="67.14285714285714" height="60" as="geometry" />
        </mxCell>
        <mxCell id="U6tUr1Qk7Yr2OwYIVVNg-38" style="edgeStyle=orthogonalEdgeStyle;rounded=0;orthogonalLoop=1;jettySize=auto;html=1;" parent="1" source="U6tUr1Qk7Yr2OwYIVVNg-11" target="U6tUr1Qk7Yr2OwYIVVNg-19" edge="1">
          <mxGeometry relative="1" as="geometry" />
        </mxCell>
        <mxCell id="U6tUr1Qk7Yr2OwYIVVNg-53" style="edgeStyle=orthogonalEdgeStyle;rounded=0;orthogonalLoop=1;jettySize=auto;html=1;" parent="1" source="U6tUr1Qk7Yr2OwYIVVNg-11" target="U6tUr1Qk7Yr2OwYIVVNg-10" edge="1">
          <mxGeometry relative="1" as="geometry" />
        </mxCell>
        <mxCell id="U6tUr1Qk7Yr2OwYIVVNg-69" style="edgeStyle=orthogonalEdgeStyle;rounded=0;orthogonalLoop=1;jettySize=auto;html=1;entryX=0;entryY=0.5;entryDx=0;entryDy=0;" parent="1" source="U6tUr1Qk7Yr2OwYIVVNg-11" target="U6tUr1Qk7Yr2OwYIVVNg-12" edge="1">
          <mxGeometry relative="1" as="geometry" />
        </mxCell>
        <mxCell id="U6tUr1Qk7Yr2OwYIVVNg-11" value="sTile" style="rounded=0;whiteSpace=wrap;html=1;" parent="1" vertex="1">
          <mxGeometry x="472.61809523809524" y="-285" width="67.14285714285714" height="30" as="geometry" />
        </mxCell>
        <mxCell id="U6tUr1Qk7Yr2OwYIVVNg-72" style="edgeStyle=orthogonalEdgeStyle;rounded=0;orthogonalLoop=1;jettySize=auto;html=1;" parent="1" source="U6tUr1Qk7Yr2OwYIVVNg-13" target="U6tUr1Qk7Yr2OwYIVVNg-12" edge="1">
          <mxGeometry relative="1" as="geometry" />
        </mxCell>
        <mxCell id="U6tUr1Qk7Yr2OwYIVVNg-82" style="edgeStyle=orthogonalEdgeStyle;rounded=0;orthogonalLoop=1;jettySize=auto;html=1;" parent="1" source="U6tUr1Qk7Yr2OwYIVVNg-13" edge="1">
          <mxGeometry relative="1" as="geometry">
            <mxPoint x="723.567619047619" y="-200" as="targetPoint" />
          </mxGeometry>
        </mxCell>
        <mxCell id="U6tUr1Qk7Yr2OwYIVVNg-13" value="sTile" style="rounded=0;whiteSpace=wrap;html=1;" parent="1" vertex="1">
          <mxGeometry x="689.9961904761905" y="-285" width="67.14285714285714" height="30" as="geometry" />
        </mxCell>
        <mxCell id="U6tUr1Qk7Yr2OwYIVVNg-40" style="edgeStyle=orthogonalEdgeStyle;rounded=0;orthogonalLoop=1;jettySize=auto;html=1;" parent="1" source="U6tUr1Qk7Yr2OwYIVVNg-12" target="U6tUr1Qk7Yr2OwYIVVNg-25" edge="1">
          <mxGeometry relative="1" as="geometry" />
        </mxCell>
        <mxCell id="U6tUr1Qk7Yr2OwYIVVNg-70" style="edgeStyle=orthogonalEdgeStyle;rounded=0;orthogonalLoop=1;jettySize=auto;html=1;entryX=1;entryY=0.5;entryDx=0;entryDy=0;" parent="1" source="U6tUr1Qk7Yr2OwYIVVNg-12" target="U6tUr1Qk7Yr2OwYIVVNg-11" edge="1">
          <mxGeometry relative="1" as="geometry" />
        </mxCell>
        <mxCell id="U6tUr1Qk7Yr2OwYIVVNg-71" style="edgeStyle=orthogonalEdgeStyle;rounded=0;orthogonalLoop=1;jettySize=auto;html=1;entryX=0;entryY=0.5;entryDx=0;entryDy=0;" parent="1" source="U6tUr1Qk7Yr2OwYIVVNg-12" target="U6tUr1Qk7Yr2OwYIVVNg-13" edge="1">
          <mxGeometry relative="1" as="geometry" />
        </mxCell>
        <mxCell id="U6tUr1Qk7Yr2OwYIVVNg-12" value="vTile" style="rounded=0;whiteSpace=wrap;html=1;" parent="1" vertex="1">
          <mxGeometry x="580.0019047619047" y="-300" width="67.14285714285714" height="60" as="geometry" />
        </mxCell>
        <mxCell id="U6tUr1Qk7Yr2OwYIVVNg-57" style="edgeStyle=orthogonalEdgeStyle;rounded=0;orthogonalLoop=1;jettySize=auto;html=1;entryX=0.5;entryY=1;entryDx=0;entryDy=0;" parent="1" source="U6tUr1Qk7Yr2OwYIVVNg-14" target="U6tUr1Qk7Yr2OwYIVVNg-24" edge="1">
          <mxGeometry relative="1" as="geometry" />
        </mxCell>
        <mxCell id="U6tUr1Qk7Yr2OwYIVVNg-59" style="edgeStyle=orthogonalEdgeStyle;rounded=0;orthogonalLoop=1;jettySize=auto;html=1;entryX=0.5;entryY=0;entryDx=0;entryDy=0;" parent="1" source="U6tUr1Qk7Yr2OwYIVVNg-14" target="U6tUr1Qk7Yr2OwYIVVNg-22" edge="1">
          <mxGeometry relative="1" as="geometry" />
        </mxCell>
        <mxCell id="U6tUr1Qk7Yr2OwYIVVNg-61" style="edgeStyle=orthogonalEdgeStyle;rounded=0;orthogonalLoop=1;jettySize=auto;html=1;" parent="1" source="U6tUr1Qk7Yr2OwYIVVNg-14" edge="1">
          <mxGeometry relative="1" as="geometry">
            <mxPoint x="470" y="-60" as="targetPoint" />
          </mxGeometry>
        </mxCell>
        <mxCell id="U6tUr1Qk7Yr2OwYIVVNg-14" value="vTile" style="rounded=0;whiteSpace=wrap;html=1;" parent="1" vertex="1">
          <mxGeometry x="357.8542857142857" y="-90" width="67.14285714285714" height="60" as="geometry" />
        </mxCell>
        <mxCell id="U6tUr1Qk7Yr2OwYIVVNg-33" style="edgeStyle=orthogonalEdgeStyle;rounded=0;orthogonalLoop=1;jettySize=auto;html=1;" parent="1" source="U6tUr1Qk7Yr2OwYIVVNg-15" target="U6tUr1Qk7Yr2OwYIVVNg-19" edge="1">
          <mxGeometry relative="1" as="geometry" />
        </mxCell>
        <mxCell id="U6tUr1Qk7Yr2OwYIVVNg-34" style="edgeStyle=orthogonalEdgeStyle;rounded=0;orthogonalLoop=1;jettySize=auto;html=1;" parent="1" source="U6tUr1Qk7Yr2OwYIVVNg-15" target="U6tUr1Qk7Yr2OwYIVVNg-18" edge="1">
          <mxGeometry relative="1" as="geometry" />
        </mxCell>
        <mxCell id="U6tUr1Qk7Yr2OwYIVVNg-62" style="edgeStyle=orthogonalEdgeStyle;rounded=0;orthogonalLoop=1;jettySize=auto;html=1;entryX=1;entryY=0.5;entryDx=0;entryDy=0;" parent="1" source="U6tUr1Qk7Yr2OwYIVVNg-15" target="U6tUr1Qk7Yr2OwYIVVNg-14" edge="1">
          <mxGeometry relative="1" as="geometry" />
        </mxCell>
        <mxCell id="U6tUr1Qk7Yr2OwYIVVNg-78" style="edgeStyle=orthogonalEdgeStyle;rounded=0;orthogonalLoop=1;jettySize=auto;html=1;entryX=0;entryY=0.5;entryDx=0;entryDy=0;" parent="1" source="U6tUr1Qk7Yr2OwYIVVNg-15" target="U6tUr1Qk7Yr2OwYIVVNg-17" edge="1">
          <mxGeometry relative="1" as="geometry" />
        </mxCell>
        <mxCell id="U6tUr1Qk7Yr2OwYIVVNg-15" value="sTile" style="rounded=0;whiteSpace=wrap;html=1;" parent="1" vertex="1">
          <mxGeometry x="472.61809523809524" y="-75" width="67.14285714285714" height="30" as="geometry" />
        </mxCell>
        <mxCell id="U6tUr1Qk7Yr2OwYIVVNg-45" style="edgeStyle=orthogonalEdgeStyle;rounded=0;orthogonalLoop=1;jettySize=auto;html=1;" parent="1" source="U6tUr1Qk7Yr2OwYIVVNg-16" target="U6tUr1Qk7Yr2OwYIVVNg-17" edge="1">
          <mxGeometry relative="1" as="geometry" />
        </mxCell>
        <mxCell id="U6tUr1Qk7Yr2OwYIVVNg-47" style="edgeStyle=orthogonalEdgeStyle;rounded=0;orthogonalLoop=1;jettySize=auto;html=1;" parent="1" source="U6tUr1Qk7Yr2OwYIVVNg-16" target="U6tUr1Qk7Yr2OwYIVVNg-21" edge="1">
          <mxGeometry relative="1" as="geometry" />
        </mxCell>
        <mxCell id="U6tUr1Qk7Yr2OwYIVVNg-79" style="edgeStyle=orthogonalEdgeStyle;rounded=0;orthogonalLoop=1;jettySize=auto;html=1;entryX=0.5;entryY=1;entryDx=0;entryDy=0;" parent="1" source="U6tUr1Qk7Yr2OwYIVVNg-16" target="U6tUr1Qk7Yr2OwYIVVNg-26" edge="1">
          <mxGeometry relative="1" as="geometry" />
        </mxCell>
        <mxCell id="U6tUr1Qk7Yr2OwYIVVNg-16" value="sTile" style="rounded=0;whiteSpace=wrap;html=1;" parent="1" vertex="1">
          <mxGeometry x="689.9961904761905" y="-75" width="67.14285714285714" height="30" as="geometry" />
        </mxCell>
        <mxCell id="U6tUr1Qk7Yr2OwYIVVNg-31" style="edgeStyle=orthogonalEdgeStyle;rounded=0;orthogonalLoop=1;jettySize=auto;html=1;entryX=0.5;entryY=0;entryDx=0;entryDy=0;" parent="1" source="U6tUr1Qk7Yr2OwYIVVNg-17" target="U6tUr1Qk7Yr2OwYIVVNg-20" edge="1">
          <mxGeometry relative="1" as="geometry" />
        </mxCell>
        <mxCell id="U6tUr1Qk7Yr2OwYIVVNg-43" style="edgeStyle=orthogonalEdgeStyle;rounded=0;orthogonalLoop=1;jettySize=auto;html=1;entryX=0.5;entryY=1;entryDx=0;entryDy=0;" parent="1" source="U6tUr1Qk7Yr2OwYIVVNg-17" target="U6tUr1Qk7Yr2OwYIVVNg-25" edge="1">
          <mxGeometry relative="1" as="geometry" />
        </mxCell>
        <mxCell id="U6tUr1Qk7Yr2OwYIVVNg-44" style="edgeStyle=orthogonalEdgeStyle;rounded=0;orthogonalLoop=1;jettySize=auto;html=1;" parent="1" source="U6tUr1Qk7Yr2OwYIVVNg-17" target="U6tUr1Qk7Yr2OwYIVVNg-16" edge="1">
          <mxGeometry relative="1" as="geometry" />
        </mxCell>
        <mxCell id="U6tUr1Qk7Yr2OwYIVVNg-77" style="edgeStyle=orthogonalEdgeStyle;rounded=0;orthogonalLoop=1;jettySize=auto;html=1;" parent="1" source="U6tUr1Qk7Yr2OwYIVVNg-17" edge="1">
          <mxGeometry relative="1" as="geometry">
            <mxPoint x="540" y="-60" as="targetPoint" />
          </mxGeometry>
        </mxCell>
        <mxCell id="U6tUr1Qk7Yr2OwYIVVNg-17" value="vTile" style="rounded=0;whiteSpace=wrap;html=1;" parent="1" vertex="1">
          <mxGeometry x="580.0019047619047" y="-90" width="67.14285714285714" height="60" as="geometry" />
        </mxCell>
        <mxCell id="U6tUr1Qk7Yr2OwYIVVNg-35" style="edgeStyle=orthogonalEdgeStyle;rounded=0;orthogonalLoop=1;jettySize=auto;html=1;entryX=0.5;entryY=1;entryDx=0;entryDy=0;" parent="1" source="U6tUr1Qk7Yr2OwYIVVNg-18" target="U6tUr1Qk7Yr2OwYIVVNg-15" edge="1">
          <mxGeometry relative="1" as="geometry" />
        </mxCell>
        <mxCell id="U6tUr1Qk7Yr2OwYIVVNg-37" style="edgeStyle=orthogonalEdgeStyle;rounded=0;orthogonalLoop=1;jettySize=auto;html=1;" parent="1" source="U6tUr1Qk7Yr2OwYIVVNg-18" target="U6tUr1Qk7Yr2OwYIVVNg-20" edge="1">
          <mxGeometry relative="1" as="geometry" />
        </mxCell>
        <mxCell id="U6tUr1Qk7Yr2OwYIVVNg-65" style="edgeStyle=orthogonalEdgeStyle;rounded=0;orthogonalLoop=1;jettySize=auto;html=1;entryX=1;entryY=0.5;entryDx=0;entryDy=0;" parent="1" source="U6tUr1Qk7Yr2OwYIVVNg-18" target="U6tUr1Qk7Yr2OwYIVVNg-22" edge="1">
          <mxGeometry relative="1" as="geometry" />
        </mxCell>
        <mxCell id="U6tUr1Qk7Yr2OwYIVVNg-18" value="vTile" style="rounded=0;whiteSpace=wrap;html=1;" parent="1" vertex="1">
          <mxGeometry x="472.61809523809524" y="20" width="67.14285714285714" height="60" as="geometry" />
        </mxCell>
        <mxCell id="U6tUr1Qk7Yr2OwYIVVNg-32" style="edgeStyle=orthogonalEdgeStyle;rounded=0;orthogonalLoop=1;jettySize=auto;html=1;entryX=0.5;entryY=0;entryDx=0;entryDy=0;" parent="1" source="U6tUr1Qk7Yr2OwYIVVNg-19" target="U6tUr1Qk7Yr2OwYIVVNg-15" edge="1">
          <mxGeometry relative="1" as="geometry" />
        </mxCell>
        <mxCell id="U6tUr1Qk7Yr2OwYIVVNg-39" style="edgeStyle=orthogonalEdgeStyle;rounded=0;orthogonalLoop=1;jettySize=auto;html=1;entryX=0.5;entryY=1;entryDx=0;entryDy=0;" parent="1" source="U6tUr1Qk7Yr2OwYIVVNg-19" target="U6tUr1Qk7Yr2OwYIVVNg-11" edge="1">
          <mxGeometry relative="1" as="geometry" />
        </mxCell>
        <mxCell id="U6tUr1Qk7Yr2OwYIVVNg-68" style="edgeStyle=orthogonalEdgeStyle;rounded=0;orthogonalLoop=1;jettySize=auto;html=1;entryX=1;entryY=0.5;entryDx=0;entryDy=0;" parent="1" source="U6tUr1Qk7Yr2OwYIVVNg-19" target="U6tUr1Qk7Yr2OwYIVVNg-24" edge="1">
          <mxGeometry relative="1" as="geometry" />
        </mxCell>
        <mxCell id="U6tUr1Qk7Yr2OwYIVVNg-76" style="edgeStyle=orthogonalEdgeStyle;rounded=0;orthogonalLoop=1;jettySize=auto;html=1;entryX=0;entryY=0.5;entryDx=0;entryDy=0;" parent="1" source="U6tUr1Qk7Yr2OwYIVVNg-19" target="U6tUr1Qk7Yr2OwYIVVNg-25" edge="1">
          <mxGeometry relative="1" as="geometry" />
        </mxCell>
        <mxCell id="U6tUr1Qk7Yr2OwYIVVNg-19" value="vTile" style="rounded=0;whiteSpace=wrap;html=1;" parent="1" vertex="1">
          <mxGeometry x="472.61809523809524" y="-200" width="67.14285714285714" height="60" as="geometry" />
        </mxCell>
        <mxCell id="U6tUr1Qk7Yr2OwYIVVNg-28" value="" style="edgeStyle=orthogonalEdgeStyle;rounded=0;orthogonalLoop=1;jettySize=auto;html=1;" parent="1" source="U6tUr1Qk7Yr2OwYIVVNg-20" target="U6tUr1Qk7Yr2OwYIVVNg-21" edge="1">
          <mxGeometry relative="1" as="geometry" />
        </mxCell>
        <mxCell id="U6tUr1Qk7Yr2OwYIVVNg-30" style="edgeStyle=orthogonalEdgeStyle;rounded=0;orthogonalLoop=1;jettySize=auto;html=1;entryX=0.5;entryY=1;entryDx=0;entryDy=0;" parent="1" source="U6tUr1Qk7Yr2OwYIVVNg-20" target="U6tUr1Qk7Yr2OwYIVVNg-17" edge="1">
          <mxGeometry relative="1" as="geometry" />
        </mxCell>
        <mxCell id="U6tUr1Qk7Yr2OwYIVVNg-66" style="edgeStyle=orthogonalEdgeStyle;rounded=0;orthogonalLoop=1;jettySize=auto;html=1;" parent="1" source="U6tUr1Qk7Yr2OwYIVVNg-20" target="U6tUr1Qk7Yr2OwYIVVNg-18" edge="1">
          <mxGeometry relative="1" as="geometry" />
        </mxCell>
        <mxCell id="U6tUr1Qk7Yr2OwYIVVNg-20" value="sTile" style="rounded=0;whiteSpace=wrap;html=1;" parent="1" vertex="1">
          <mxGeometry x="580.0019047619047" y="35" width="67.14285714285714" height="30" as="geometry" />
        </mxCell>
        <mxCell id="U6tUr1Qk7Yr2OwYIVVNg-29" style="edgeStyle=orthogonalEdgeStyle;rounded=0;orthogonalLoop=1;jettySize=auto;html=1;" parent="1" source="U6tUr1Qk7Yr2OwYIVVNg-21" target="U6tUr1Qk7Yr2OwYIVVNg-20" edge="1">
          <mxGeometry relative="1" as="geometry" />
        </mxCell>
        <mxCell id="U6tUr1Qk7Yr2OwYIVVNg-46" style="edgeStyle=orthogonalEdgeStyle;rounded=0;orthogonalLoop=1;jettySize=auto;html=1;entryX=0.5;entryY=1;entryDx=0;entryDy=0;" parent="1" source="U6tUr1Qk7Yr2OwYIVVNg-21" target="U6tUr1Qk7Yr2OwYIVVNg-16" edge="1">
          <mxGeometry relative="1" as="geometry" />
        </mxCell>
        <mxCell id="U6tUr1Qk7Yr2OwYIVVNg-21" value="vTile" style="rounded=0;whiteSpace=wrap;html=1;" parent="1" vertex="1">
          <mxGeometry x="689.9961904761905" y="20" width="67.14285714285714" height="60" as="geometry" />
        </mxCell>
        <mxCell id="U6tUr1Qk7Yr2OwYIVVNg-60" style="edgeStyle=orthogonalEdgeStyle;rounded=0;orthogonalLoop=1;jettySize=auto;html=1;" parent="1" source="U6tUr1Qk7Yr2OwYIVVNg-22" edge="1">
          <mxGeometry relative="1" as="geometry">
            <mxPoint x="391.5757142857144" y="-30" as="targetPoint" />
          </mxGeometry>
        </mxCell>
        <mxCell id="U6tUr1Qk7Yr2OwYIVVNg-64" style="edgeStyle=orthogonalEdgeStyle;rounded=0;orthogonalLoop=1;jettySize=auto;html=1;entryX=0;entryY=0.5;entryDx=0;entryDy=0;" parent="1" source="U6tUr1Qk7Yr2OwYIVVNg-22" target="U6tUr1Qk7Yr2OwYIVVNg-18" edge="1">
          <mxGeometry relative="1" as="geometry">
            <mxPoint x="460" y="50" as="targetPoint" />
          </mxGeometry>
        </mxCell>
        <mxCell id="U6tUr1Qk7Yr2OwYIVVNg-95" value="" style="edgeStyle=orthogonalEdgeStyle;rounded=0;orthogonalLoop=1;jettySize=auto;html=1;" parent="1" source="U6tUr1Qk7Yr2OwYIVVNg-22" target="U6tUr1Qk7Yr2OwYIVVNg-18" edge="1">
          <mxGeometry relative="1" as="geometry" />
        </mxCell>
        <mxCell id="U6tUr1Qk7Yr2OwYIVVNg-22" value="sTile" style="rounded=0;whiteSpace=wrap;html=1;" parent="1" vertex="1">
          <mxGeometry x="358.00428571428574" y="35" width="67.14285714285714" height="30" as="geometry" />
        </mxCell>
        <mxCell id="U6tUr1Qk7Yr2OwYIVVNg-55" style="edgeStyle=orthogonalEdgeStyle;rounded=0;orthogonalLoop=1;jettySize=auto;html=1;" parent="1" source="U6tUr1Qk7Yr2OwYIVVNg-24" edge="1">
          <mxGeometry relative="1" as="geometry">
            <mxPoint x="391.4257142857143" y="-240" as="targetPoint" />
          </mxGeometry>
        </mxCell>
        <mxCell id="U6tUr1Qk7Yr2OwYIVVNg-56" style="edgeStyle=orthogonalEdgeStyle;rounded=0;orthogonalLoop=1;jettySize=auto;html=1;entryX=0.5;entryY=0;entryDx=0;entryDy=0;" parent="1" source="U6tUr1Qk7Yr2OwYIVVNg-24" target="U6tUr1Qk7Yr2OwYIVVNg-14" edge="1">
          <mxGeometry relative="1" as="geometry" />
        </mxCell>
        <mxCell id="U6tUr1Qk7Yr2OwYIVVNg-67" style="edgeStyle=orthogonalEdgeStyle;rounded=0;orthogonalLoop=1;jettySize=auto;html=1;entryX=0;entryY=0.5;entryDx=0;entryDy=0;" parent="1" source="U6tUr1Qk7Yr2OwYIVVNg-24" target="U6tUr1Qk7Yr2OwYIVVNg-19" edge="1">
          <mxGeometry relative="1" as="geometry" />
        </mxCell>
        <mxCell id="U6tUr1Qk7Yr2OwYIVVNg-24" value="sTile" style="rounded=0;whiteSpace=wrap;html=1;" parent="1" vertex="1">
          <mxGeometry x="357.8542857142857" y="-185" width="67.14285714285714" height="30" as="geometry" />
        </mxCell>
        <mxCell id="U6tUr1Qk7Yr2OwYIVVNg-41" style="edgeStyle=orthogonalEdgeStyle;rounded=0;orthogonalLoop=1;jettySize=auto;html=1;" parent="1" source="U6tUr1Qk7Yr2OwYIVVNg-25" target="U6tUr1Qk7Yr2OwYIVVNg-12" edge="1">
          <mxGeometry relative="1" as="geometry" />
        </mxCell>
        <mxCell id="U6tUr1Qk7Yr2OwYIVVNg-42" style="edgeStyle=orthogonalEdgeStyle;rounded=0;orthogonalLoop=1;jettySize=auto;html=1;" parent="1" source="U6tUr1Qk7Yr2OwYIVVNg-25" target="U6tUr1Qk7Yr2OwYIVVNg-17" edge="1">
          <mxGeometry relative="1" as="geometry" />
        </mxCell>
        <mxCell id="U6tUr1Qk7Yr2OwYIVVNg-73" style="edgeStyle=orthogonalEdgeStyle;rounded=0;orthogonalLoop=1;jettySize=auto;html=1;entryX=0;entryY=0.5;entryDx=0;entryDy=0;" parent="1" source="U6tUr1Qk7Yr2OwYIVVNg-25" target="U6tUr1Qk7Yr2OwYIVVNg-26" edge="1">
          <mxGeometry relative="1" as="geometry" />
        </mxCell>
        <mxCell id="U6tUr1Qk7Yr2OwYIVVNg-75" style="edgeStyle=orthogonalEdgeStyle;rounded=0;orthogonalLoop=1;jettySize=auto;html=1;" parent="1" source="U6tUr1Qk7Yr2OwYIVVNg-25" edge="1">
          <mxGeometry relative="1" as="geometry">
            <mxPoint x="540" y="-170" as="targetPoint" />
          </mxGeometry>
        </mxCell>
        <mxCell id="U6tUr1Qk7Yr2OwYIVVNg-25" value="sTile" style="rounded=0;whiteSpace=wrap;html=1;" parent="1" vertex="1">
          <mxGeometry x="580.0019047619047" y="-185" width="67.14285714285714" height="30" as="geometry" />
        </mxCell>
        <mxCell id="U6tUr1Qk7Yr2OwYIVVNg-74" style="edgeStyle=orthogonalEdgeStyle;rounded=0;orthogonalLoop=1;jettySize=auto;html=1;entryX=1;entryY=0.5;entryDx=0;entryDy=0;" parent="1" source="U6tUr1Qk7Yr2OwYIVVNg-26" target="U6tUr1Qk7Yr2OwYIVVNg-25" edge="1">
          <mxGeometry relative="1" as="geometry" />
        </mxCell>
        <mxCell id="U6tUr1Qk7Yr2OwYIVVNg-80" style="edgeStyle=orthogonalEdgeStyle;rounded=0;orthogonalLoop=1;jettySize=auto;html=1;entryX=0.5;entryY=0;entryDx=0;entryDy=0;" parent="1" source="U6tUr1Qk7Yr2OwYIVVNg-26" target="U6tUr1Qk7Yr2OwYIVVNg-16" edge="1">
          <mxGeometry relative="1" as="geometry" />
        </mxCell>
        <mxCell id="U6tUr1Qk7Yr2OwYIVVNg-81" style="edgeStyle=orthogonalEdgeStyle;rounded=0;orthogonalLoop=1;jettySize=auto;html=1;entryX=0.5;entryY=1;entryDx=0;entryDy=0;" parent="1" source="U6tUr1Qk7Yr2OwYIVVNg-26" target="U6tUr1Qk7Yr2OwYIVVNg-13" edge="1">
          <mxGeometry relative="1" as="geometry" />
        </mxCell>
        <mxCell id="U6tUr1Qk7Yr2OwYIVVNg-26" value="vTile" style="rounded=0;whiteSpace=wrap;html=1;" parent="1" vertex="1">
          <mxGeometry x="689.9961904761905" y="-200" width="67.14285714285714" height="60" as="geometry" />
        </mxCell>
        <mxCell id="U6tUr1Qk7Yr2OwYIVVNg-84" value="" style="endArrow=classic;startArrow=classic;html=1;rounded=0;" parent="1" edge="1">
          <mxGeometry width="50" height="50" relative="1" as="geometry">
            <mxPoint x="422.62" y="-90" as="sourcePoint" />
            <mxPoint x="472.62" y="-140" as="targetPoint" />
          </mxGeometry>
        </mxCell>
        <mxCell id="U6tUr1Qk7Yr2OwYIVVNg-85" value="" style="endArrow=classic;startArrow=classic;html=1;rounded=0;exitX=0;exitY=0;exitDx=0;exitDy=0;" parent="1" source="U6tUr1Qk7Yr2OwYIVVNg-15" edge="1">
          <mxGeometry width="50" height="50" relative="1" as="geometry">
            <mxPoint x="375.15" y="-105" as="sourcePoint" />
            <mxPoint x="425.15" y="-155" as="targetPoint" />
          </mxGeometry>
        </mxCell>
        <mxCell id="U6tUr1Qk7Yr2OwYIVVNg-86" value="" style="endArrow=classic;startArrow=classic;html=1;rounded=0;exitX=0;exitY=0;exitDx=0;exitDy=0;" parent="1" source="U6tUr1Qk7Yr2OwYIVVNg-17" edge="1">
          <mxGeometry width="50" height="50" relative="1" as="geometry">
            <mxPoint x="587.61" y="-60" as="sourcePoint" />
            <mxPoint x="539.76" y="-140" as="targetPoint" />
          </mxGeometry>
        </mxCell>
        <mxCell id="U6tUr1Qk7Yr2OwYIVVNg-87" value="" style="endArrow=classic;startArrow=classic;html=1;rounded=0;exitX=0;exitY=0;exitDx=0;exitDy=0;" parent="1" source="U6tUr1Qk7Yr2OwYIVVNg-16" edge="1">
          <mxGeometry width="50" height="50" relative="1" as="geometry">
            <mxPoint x="687.38" y="-105" as="sourcePoint" />
            <mxPoint x="647.14" y="-155" as="targetPoint" />
          </mxGeometry>
        </mxCell>
        <mxCell id="U6tUr1Qk7Yr2OwYIVVNg-88" value="" style="endArrow=classic;startArrow=classic;html=1;rounded=0;exitX=1;exitY=0;exitDx=0;exitDy=0;entryX=0;entryY=1;entryDx=0;entryDy=0;" parent="1" source="U6tUr1Qk7Yr2OwYIVVNg-17" target="U6tUr1Qk7Yr2OwYIVVNg-26" edge="1">
          <mxGeometry width="50" height="50" relative="1" as="geometry">
            <mxPoint x="700" y="-65" as="sourcePoint" />
            <mxPoint x="657.14" y="-145" as="targetPoint" />
          </mxGeometry>
        </mxCell>
        <mxCell id="U6tUr1Qk7Yr2OwYIVVNg-89" value="" style="endArrow=classic;startArrow=classic;html=1;rounded=0;exitX=1;exitY=0;exitDx=0;exitDy=0;entryX=0;entryY=1;entryDx=0;entryDy=0;" parent="1" source="U6tUr1Qk7Yr2OwYIVVNg-20" edge="1">
          <mxGeometry width="50" height="50" relative="1" as="geometry">
            <mxPoint x="647" y="5" as="sourcePoint" />
            <mxPoint x="690" y="-45" as="targetPoint" />
          </mxGeometry>
        </mxCell>
        <mxCell id="U6tUr1Qk7Yr2OwYIVVNg-90" value="" style="endArrow=classic;startArrow=classic;html=1;rounded=0;exitX=0;exitY=0;exitDx=0;exitDy=0;entryX=1;entryY=1;entryDx=0;entryDy=0;" parent="1" source="U6tUr1Qk7Yr2OwYIVVNg-21" target="U6tUr1Qk7Yr2OwYIVVNg-17" edge="1">
          <mxGeometry width="50" height="50" relative="1" as="geometry">
            <mxPoint x="657" y="45" as="sourcePoint" />
            <mxPoint x="700" y="-35" as="targetPoint" />
          </mxGeometry>
        </mxCell>
        <mxCell id="U6tUr1Qk7Yr2OwYIVVNg-91" value="" style="endArrow=classic;startArrow=classic;html=1;rounded=0;exitX=0;exitY=0;exitDx=0;exitDy=0;entryX=1;entryY=1;entryDx=0;entryDy=0;" parent="1" source="U6tUr1Qk7Yr2OwYIVVNg-20" edge="1">
          <mxGeometry width="50" height="50" relative="1" as="geometry">
            <mxPoint x="582.76" y="5" as="sourcePoint" />
            <mxPoint x="539.76" y="-45" as="targetPoint" />
          </mxGeometry>
        </mxCell>
        <mxCell id="U6tUr1Qk7Yr2OwYIVVNg-92" value="" style="endArrow=classic;startArrow=classic;html=1;rounded=0;" parent="1" edge="1">
          <mxGeometry width="50" height="50" relative="1" as="geometry">
            <mxPoint x="540" y="20" as="sourcePoint" />
            <mxPoint x="580" y="-30" as="targetPoint" />
          </mxGeometry>
        </mxCell>
        <mxCell id="U6tUr1Qk7Yr2OwYIVVNg-93" value="" style="endArrow=classic;startArrow=classic;html=1;rounded=0;exitX=1;exitY=0;exitDx=0;exitDy=0;" parent="1" source="U6tUr1Qk7Yr2OwYIVVNg-22" edge="1">
          <mxGeometry width="50" height="50" relative="1" as="geometry">
            <mxPoint x="432.62" y="5" as="sourcePoint" />
            <mxPoint x="472.62" y="-45" as="targetPoint" />
          </mxGeometry>
        </mxCell>
        <mxCell id="U6tUr1Qk7Yr2OwYIVVNg-94" value="" style="endArrow=classic;startArrow=classic;html=1;rounded=0;exitX=0;exitY=0;exitDx=0;exitDy=0;entryX=1;entryY=1;entryDx=0;entryDy=0;" parent="1" source="U6tUr1Qk7Yr2OwYIVVNg-18" target="U6tUr1Qk7Yr2OwYIVVNg-14" edge="1">
          <mxGeometry width="50" height="50" relative="1" as="geometry">
            <mxPoint x="435" y="45" as="sourcePoint" />
            <mxPoint x="482.62" y="-35" as="targetPoint" />
          </mxGeometry>
        </mxCell>
        <mxCell id="U6tUr1Qk7Yr2OwYIVVNg-96" value="" style="endArrow=classic;startArrow=classic;html=1;rounded=0;entryX=0;entryY=1;entryDx=0;entryDy=0;" parent="1" target="U6tUr1Qk7Yr2OwYIVVNg-11" edge="1">
          <mxGeometry width="50" height="50" relative="1" as="geometry">
            <mxPoint x="422.62" y="-185" as="sourcePoint" />
            <mxPoint x="472.62" y="-235" as="targetPoint" />
          </mxGeometry>
        </mxCell>
        <mxCell id="U6tUr1Qk7Yr2OwYIVVNg-97" value="" style="endArrow=classic;startArrow=classic;html=1;rounded=0;entryX=1;entryY=1;entryDx=0;entryDy=0;exitX=0;exitY=0;exitDx=0;exitDy=0;" parent="1" source="U6tUr1Qk7Yr2OwYIVVNg-19" target="U6tUr1Qk7Yr2OwYIVVNg-10" edge="1">
          <mxGeometry width="50" height="50" relative="1" as="geometry">
            <mxPoint x="432.62" y="-175" as="sourcePoint" />
            <mxPoint x="483" y="-245" as="targetPoint" />
          </mxGeometry>
        </mxCell>
        <mxCell id="U6tUr1Qk7Yr2OwYIVVNg-98" value="" style="endArrow=classic;startArrow=classic;html=1;rounded=0;exitX=0;exitY=0;exitDx=0;exitDy=0;entryX=1;entryY=1;entryDx=0;entryDy=0;" parent="1" target="U6tUr1Qk7Yr2OwYIVVNg-12" edge="1">
          <mxGeometry width="50" height="50" relative="1" as="geometry">
            <mxPoint x="690" y="-200" as="sourcePoint" />
            <mxPoint x="650" y="-240" as="targetPoint" />
          </mxGeometry>
        </mxCell>
        <mxCell id="U6tUr1Qk7Yr2OwYIVVNg-99" value="" style="endArrow=classic;startArrow=classic;html=1;rounded=0;entryX=0;entryY=1;entryDx=0;entryDy=0;" parent="1" target="U6tUr1Qk7Yr2OwYIVVNg-13" edge="1">
          <mxGeometry width="50" height="50" relative="1" as="geometry">
            <mxPoint x="647.14" y="-185" as="sourcePoint" />
            <mxPoint x="697.52" y="-255" as="targetPoint" />
          </mxGeometry>
        </mxCell>
        <mxCell id="U6tUr1Qk7Yr2OwYIVVNg-100" value="" style="endArrow=classic;startArrow=classic;html=1;rounded=0;exitX=1;exitY=0;exitDx=0;exitDy=0;" parent="1" source="U6tUr1Qk7Yr2OwYIVVNg-19" edge="1">
          <mxGeometry width="50" height="50" relative="1" as="geometry">
            <mxPoint x="539.76" y="-190" as="sourcePoint" />
            <mxPoint x="580" y="-240" as="targetPoint" />
          </mxGeometry>
        </mxCell>
        <mxCell id="U6tUr1Qk7Yr2OwYIVVNg-101" value="" style="endArrow=classic;startArrow=classic;html=1;rounded=0;exitX=0;exitY=0;exitDx=0;exitDy=0;entryX=1;entryY=1;entryDx=0;entryDy=0;" parent="1" source="U6tUr1Qk7Yr2OwYIVVNg-25" target="U6tUr1Qk7Yr2OwYIVVNg-11" edge="1">
          <mxGeometry width="50" height="50" relative="1" as="geometry">
            <mxPoint x="550" y="-190" as="sourcePoint" />
            <mxPoint x="590" y="-230" as="targetPoint" />
          </mxGeometry>
        </mxCell>
        <mxCell id="U6tUr1Qk7Yr2OwYIVVNg-126" value="" style="endArrow=none;html=1;rounded=0;exitX=0;exitY=0;exitDx=0;exitDy=0;" parent="1" source="U6tUr1Qk7Yr2OwYIVVNg-112" edge="1">
          <mxGeometry width="50" height="50" relative="1" as="geometry">
            <mxPoint x="420" y="130" as="sourcePoint" />
            <mxPoint x="473" y="80" as="targetPoint" />
          </mxGeometry>
        </mxCell>
        <mxCell id="U6tUr1Qk7Yr2OwYIVVNg-127" value="" style="endArrow=none;html=1;rounded=0;exitX=1;exitY=0;exitDx=0;exitDy=0;entryX=1;entryY=1;entryDx=0;entryDy=0;" parent="1" source="U6tUr1Qk7Yr2OwYIVVNg-112" target="U6tUr1Qk7Yr2OwYIVVNg-18" edge="1">
          <mxGeometry width="50" height="50" relative="1" as="geometry">
            <mxPoint x="300" y="210" as="sourcePoint" />
            <mxPoint x="483" y="90" as="targetPoint" />
          </mxGeometry>
        </mxCell>
        <mxCell id="U6tUr1Qk7Yr2OwYIVVNg-2" value="VecPAC - Vector Tile" style="text;html=1;align=center;verticalAlign=middle;whiteSpace=wrap;rounded=0;" parent="1" vertex="1">
          <mxGeometry x="230" y="200" width="60" height="30" as="geometry" />
        </mxCell>
        <mxCell id="U6tUr1Qk7Yr2OwYIVVNg-103" value="Vector Func Units" style="rounded=0;whiteSpace=wrap;html=1;" parent="1" vertex="1">
          <mxGeometry x="450" y="370" width="180" height="30" as="geometry" />
        </mxCell>
        <mxCell id="U6tUr1Qk7Yr2OwYIVVNg-111" style="edgeStyle=orthogonalEdgeStyle;rounded=0;orthogonalLoop=1;jettySize=auto;html=1;entryX=0;entryY=0.5;entryDx=0;entryDy=0;" parent="1" source="U6tUr1Qk7Yr2OwYIVVNg-105" target="U6tUr1Qk7Yr2OwYIVVNg-103" edge="1">
          <mxGeometry relative="1" as="geometry">
            <Array as="points">
              <mxPoint x="360" y="385" />
            </Array>
          </mxGeometry>
        </mxCell>
        <mxCell id="U6tUr1Qk7Yr2OwYIVVNg-105" value="Config &lt;br&gt;Mem" style="rounded=0;whiteSpace=wrap;html=1;" parent="1" vertex="1">
          <mxGeometry x="310" y="230" width="100" height="60" as="geometry" />
        </mxCell>
        <mxCell id="U6tUr1Qk7Yr2OwYIVVNg-119" style="edgeStyle=orthogonalEdgeStyle;rounded=0;orthogonalLoop=1;jettySize=auto;html=1;" parent="1" source="U6tUr1Qk7Yr2OwYIVVNg-106" edge="1">
          <mxGeometry relative="1" as="geometry">
            <mxPoint x="490" y="370" as="targetPoint" />
          </mxGeometry>
        </mxCell>
        <mxCell id="U6tUr1Qk7Yr2OwYIVVNg-106" value="vRegs" style="rounded=0;whiteSpace=wrap;html=1;horizontal=0;" parent="1" vertex="1">
          <mxGeometry x="475" y="220" width="30" height="90" as="geometry" />
        </mxCell>
        <mxCell id="U6tUr1Qk7Yr2OwYIVVNg-120" style="edgeStyle=orthogonalEdgeStyle;rounded=0;orthogonalLoop=1;jettySize=auto;html=1;" parent="1" source="U6tUr1Qk7Yr2OwYIVVNg-107" edge="1">
          <mxGeometry relative="1" as="geometry">
            <mxPoint x="540" y="370" as="targetPoint" />
          </mxGeometry>
        </mxCell>
        <mxCell id="U6tUr1Qk7Yr2OwYIVVNg-107" value="vRegs" style="rounded=0;whiteSpace=wrap;html=1;horizontal=0;" parent="1" vertex="1">
          <mxGeometry x="525" y="220" width="30" height="90" as="geometry" />
        </mxCell>
        <mxCell id="U6tUr1Qk7Yr2OwYIVVNg-121" style="edgeStyle=orthogonalEdgeStyle;rounded=0;orthogonalLoop=1;jettySize=auto;html=1;" parent="1" source="U6tUr1Qk7Yr2OwYIVVNg-108" edge="1">
          <mxGeometry relative="1" as="geometry">
            <mxPoint x="590" y="370" as="targetPoint" />
          </mxGeometry>
        </mxCell>
        <mxCell id="U6tUr1Qk7Yr2OwYIVVNg-108" value="Predicate" style="rounded=0;whiteSpace=wrap;html=1;horizontal=0;" parent="1" vertex="1">
          <mxGeometry x="575" y="210" width="30" height="100" as="geometry" />
        </mxCell>
        <mxCell id="U6tUr1Qk7Yr2OwYIVVNg-112" value="" style="rounded=0;whiteSpace=wrap;html=1;fillColor=none;" parent="1" vertex="1">
          <mxGeometry x="290" y="190" width="370" height="230" as="geometry" />
        </mxCell>
        <mxCell id="U6tUr1Qk7Yr2OwYIVVNg-128" value="" style="endArrow=none;html=1;rounded=0;entryX=1;entryY=1;entryDx=0;entryDy=0;exitX=1;exitY=0;exitDx=0;exitDy=0;" parent="1" source="U6tUr1Qk7Yr2OwYIVVNg-147" edge="1">
          <mxGeometry width="50" height="50" relative="1" as="geometry">
            <mxPoint x="660" y="530" as="sourcePoint" />
            <mxPoint x="630" y="400" as="targetPoint" />
          </mxGeometry>
        </mxCell>
        <mxCell id="U6tUr1Qk7Yr2OwYIVVNg-129" value="" style="endArrow=none;html=1;rounded=0;exitX=0;exitY=0;exitDx=0;exitDy=0;" parent="1" source="U6tUr1Qk7Yr2OwYIVVNg-147" edge="1">
          <mxGeometry width="50" height="50" relative="1" as="geometry">
            <mxPoint x="310" y="520" as="sourcePoint" />
            <mxPoint x="450" y="400" as="targetPoint" />
          </mxGeometry>
        </mxCell>
        <mxCell id="U6tUr1Qk7Yr2OwYIVVNg-130" value="16b full &lt;br&gt;Adder" style="rounded=0;whiteSpace=wrap;html=1;" parent="1" vertex="1">
          <mxGeometry x="210" y="560" width="90" height="40" as="geometry" />
        </mxCell>
        <mxCell id="U6tUr1Qk7Yr2OwYIVVNg-136" style="edgeStyle=orthogonalEdgeStyle;rounded=0;orthogonalLoop=1;jettySize=auto;html=1;entryX=1;entryY=0.5;entryDx=0;entryDy=0;" parent="1" source="U6tUr1Qk7Yr2OwYIVVNg-131" target="U6tUr1Qk7Yr2OwYIVVNg-130" edge="1">
          <mxGeometry relative="1" as="geometry" />
        </mxCell>
        <mxCell id="U6tUr1Qk7Yr2OwYIVVNg-131" value="16b full &lt;br&gt;Adder" style="rounded=0;whiteSpace=wrap;html=1;" parent="1" vertex="1">
          <mxGeometry x="350" y="560" width="90" height="40" as="geometry" />
        </mxCell>
        <mxCell id="U6tUr1Qk7Yr2OwYIVVNg-134" style="edgeStyle=orthogonalEdgeStyle;rounded=0;orthogonalLoop=1;jettySize=auto;html=1;entryX=1;entryY=0.5;entryDx=0;entryDy=0;" parent="1" source="U6tUr1Qk7Yr2OwYIVVNg-132" target="U6tUr1Qk7Yr2OwYIVVNg-133" edge="1">
          <mxGeometry relative="1" as="geometry" />
        </mxCell>
        <mxCell id="U6tUr1Qk7Yr2OwYIVVNg-132" value="16b half&lt;br&gt;Adder" style="rounded=0;whiteSpace=wrap;html=1;" parent="1" vertex="1">
          <mxGeometry x="620" y="560" width="95" height="40" as="geometry" />
        </mxCell>
        <mxCell id="U6tUr1Qk7Yr2OwYIVVNg-135" style="edgeStyle=orthogonalEdgeStyle;rounded=0;orthogonalLoop=1;jettySize=auto;html=1;entryX=1;entryY=0.5;entryDx=0;entryDy=0;" parent="1" source="U6tUr1Qk7Yr2OwYIVVNg-133" target="U6tUr1Qk7Yr2OwYIVVNg-131" edge="1">
          <mxGeometry relative="1" as="geometry" />
        </mxCell>
        <mxCell id="U6tUr1Qk7Yr2OwYIVVNg-133" value="16b full &lt;br&gt;Adder" style="rounded=0;whiteSpace=wrap;html=1;" parent="1" vertex="1">
          <mxGeometry x="490" y="560" width="85" height="40" as="geometry" />
        </mxCell>
        <mxCell id="U6tUr1Qk7Yr2OwYIVVNg-138" value="16b&amp;nbsp;&lt;br&gt;Mul" style="rounded=0;whiteSpace=wrap;html=1;" parent="1" vertex="1">
          <mxGeometry x="210" y="660" width="90" height="40" as="geometry" />
        </mxCell>
        <mxCell id="U6tUr1Qk7Yr2OwYIVVNg-140" value="16b&amp;nbsp;&lt;br&gt;Mul" style="rounded=0;whiteSpace=wrap;html=1;" parent="1" vertex="1">
          <mxGeometry x="350" y="660" width="90" height="40" as="geometry" />
        </mxCell>
        <mxCell id="U6tUr1Qk7Yr2OwYIVVNg-142" value="16b&amp;nbsp;&lt;br&gt;Mul" style="rounded=0;whiteSpace=wrap;html=1;" parent="1" vertex="1">
          <mxGeometry x="620" y="660" width="95" height="40" as="geometry" />
        </mxCell>
        <mxCell id="U6tUr1Qk7Yr2OwYIVVNg-144" value="16b&amp;nbsp;&lt;br&gt;Mul" style="rounded=0;whiteSpace=wrap;html=1;" parent="1" vertex="1">
          <mxGeometry x="490" y="660" width="85" height="40" as="geometry" />
        </mxCell>
        <mxCell id="U6tUr1Qk7Yr2OwYIVVNg-145" value="" style="rounded=0;whiteSpace=wrap;html=1;fillColor=none;" parent="1" vertex="1">
          <mxGeometry x="190" y="540" width="560" height="80" as="geometry" />
        </mxCell>
        <mxCell id="U6tUr1Qk7Yr2OwYIVVNg-146" value="" style="rounded=0;whiteSpace=wrap;html=1;fillColor=none;" parent="1" vertex="1">
          <mxGeometry x="190" y="640" width="560" height="80" as="geometry" />
        </mxCell>
        <mxCell id="U6tUr1Qk7Yr2OwYIVVNg-147" value="" style="rounded=0;whiteSpace=wrap;html=1;fillColor=none;" parent="1" vertex="1">
          <mxGeometry x="90" y="520" width="680" height="220" as="geometry" />
        </mxCell>
        <mxCell id="U6tUr1Qk7Yr2OwYIVVNg-149" value="VecPAC - Vector Multiplier" style="text;html=1;align=center;verticalAlign=middle;whiteSpace=wrap;rounded=0;" parent="1" vertex="1">
          <mxGeometry x="100" y="640" width="90" height="30" as="geometry" />
        </mxCell>
        <mxCell id="U6tUr1Qk7Yr2OwYIVVNg-150" value="VecPAC - &lt;br&gt;Vector functional units" style="text;html=1;align=center;verticalAlign=middle;whiteSpace=wrap;rounded=0;" parent="1" vertex="1">
          <mxGeometry x="-30" y="520" width="120" height="30" as="geometry" />
        </mxCell>
        <mxCell id="PtidpiLDffttu3ygKnbN-9" value="VecPAC - Vector Adder" style="text;html=1;align=center;verticalAlign=middle;whiteSpace=wrap;rounded=0;" parent="1" vertex="1">
          <mxGeometry x="110" y="540" width="80" height="30" as="geometry" />
        </mxCell>
        <mxCell id="PtidpiLDffttu3ygKnbN-56" value="" style="group" parent="1" vertex="1" connectable="0">
          <mxGeometry x="300" y="770" width="200" height="440" as="geometry" />
        </mxCell>
        <mxCell id="PtidpiLDffttu3ygKnbN-8" value="" style="rounded=0;whiteSpace=wrap;html=1;fillColor=none;rotation=-90;" parent="PtidpiLDffttu3ygKnbN-56" vertex="1">
          <mxGeometry x="-175" y="185" width="430" height="80" as="geometry" />
        </mxCell>
        <mxCell id="PtidpiLDffttu3ygKnbN-10" value="&lt;font style=&quot;font-size: 14px;&quot;&gt;&lt;b&gt;Vector Adder&lt;/b&gt;&lt;/font&gt;" style="text;html=1;align=center;verticalAlign=middle;whiteSpace=wrap;rounded=0;" parent="PtidpiLDffttu3ygKnbN-56" vertex="1">
          <mxGeometry y="210" width="80" height="30" as="geometry" />
        </mxCell>
        <mxCell id="PtidpiLDffttu3ygKnbN-11" value="" style="endArrow=classic;html=1;rounded=0;entryX=0.735;entryY=0.995;entryDx=0;entryDy=0;entryPerimeter=0;" parent="PtidpiLDffttu3ygKnbN-56" edge="1">
          <mxGeometry width="50" height="50" relative="1" as="geometry">
            <mxPoint x="130" y="80" as="sourcePoint" />
            <mxPoint x="79.60000000000014" y="80.09999999999991" as="targetPoint" />
          </mxGeometry>
        </mxCell>
        <mxCell id="PtidpiLDffttu3ygKnbN-12" value="" style="endArrow=classic;html=1;rounded=0;entryX=0.676;entryY=0.995;entryDx=0;entryDy=0;entryPerimeter=0;" parent="PtidpiLDffttu3ygKnbN-56" edge="1">
          <mxGeometry width="50" height="50" relative="1" as="geometry">
            <mxPoint x="130.39999999999998" y="100" as="sourcePoint" />
            <mxPoint x="80.00000000000011" y="100.15999999999985" as="targetPoint" />
          </mxGeometry>
        </mxCell>
        <mxCell id="PtidpiLDffttu3ygKnbN-15" value="a0" style="text;strokeColor=none;align=center;fillColor=none;html=1;verticalAlign=middle;whiteSpace=wrap;rounded=0;" parent="PtidpiLDffttu3ygKnbN-56" vertex="1">
          <mxGeometry x="110" y="60" width="60" height="30" as="geometry" />
        </mxCell>
        <mxCell id="PtidpiLDffttu3ygKnbN-16" value="b0" style="text;strokeColor=none;align=center;fillColor=none;html=1;verticalAlign=middle;whiteSpace=wrap;rounded=0;" parent="PtidpiLDffttu3ygKnbN-56" vertex="1">
          <mxGeometry x="110" y="80" width="60" height="30" as="geometry" />
        </mxCell>
        <mxCell id="PtidpiLDffttu3ygKnbN-17" value="" style="endArrow=classic;html=1;rounded=0;entryX=0.676;entryY=0.995;entryDx=0;entryDy=0;entryPerimeter=0;exitX=0.618;exitY=1.004;exitDx=0;exitDy=0;exitPerimeter=0;" parent="PtidpiLDffttu3ygKnbN-56" edge="1">
          <mxGeometry width="50" height="50" relative="1" as="geometry">
            <mxPoint x="80.31999999999994" y="120" as="sourcePoint" />
            <mxPoint x="130" y="120.11999999999989" as="targetPoint" />
          </mxGeometry>
        </mxCell>
        <mxCell id="PtidpiLDffttu3ygKnbN-18" value="c0" style="text;strokeColor=none;align=center;fillColor=none;html=1;verticalAlign=middle;whiteSpace=wrap;rounded=0;" parent="PtidpiLDffttu3ygKnbN-56" vertex="1">
          <mxGeometry x="110" y="100" width="60" height="30" as="geometry" />
        </mxCell>
        <mxCell id="PtidpiLDffttu3ygKnbN-19" value="" style="endArrow=classic;html=1;rounded=0;entryX=0.735;entryY=0.995;entryDx=0;entryDy=0;entryPerimeter=0;" parent="PtidpiLDffttu3ygKnbN-56" edge="1">
          <mxGeometry width="50" height="50" relative="1" as="geometry">
            <mxPoint x="130" y="60" as="sourcePoint" />
            <mxPoint x="80" y="60" as="targetPoint" />
          </mxGeometry>
        </mxCell>
        <mxCell id="PtidpiLDffttu3ygKnbN-20" value="carry_listen0" style="text;strokeColor=none;align=center;fillColor=none;html=1;verticalAlign=middle;whiteSpace=wrap;rounded=0;" parent="PtidpiLDffttu3ygKnbN-56" vertex="1">
          <mxGeometry x="140" y="40" width="60" height="30" as="geometry" />
        </mxCell>
        <mxCell id="PtidpiLDffttu3ygKnbN-21" value="" style="endArrow=classic;html=1;rounded=0;entryX=0.735;entryY=0.995;entryDx=0;entryDy=0;entryPerimeter=0;" parent="PtidpiLDffttu3ygKnbN-56" edge="1">
          <mxGeometry width="50" height="50" relative="1" as="geometry">
            <mxPoint x="130" y="170" as="sourcePoint" />
            <mxPoint x="80" y="170" as="targetPoint" />
          </mxGeometry>
        </mxCell>
        <mxCell id="PtidpiLDffttu3ygKnbN-22" value="" style="endArrow=classic;html=1;rounded=0;entryX=0.676;entryY=0.995;entryDx=0;entryDy=0;entryPerimeter=0;" parent="PtidpiLDffttu3ygKnbN-56" edge="1">
          <mxGeometry width="50" height="50" relative="1" as="geometry">
            <mxPoint x="130" y="190" as="sourcePoint" />
            <mxPoint x="80" y="190" as="targetPoint" />
          </mxGeometry>
        </mxCell>
        <mxCell id="PtidpiLDffttu3ygKnbN-23" value="a1" style="text;strokeColor=none;align=center;fillColor=none;html=1;verticalAlign=middle;whiteSpace=wrap;rounded=0;" parent="PtidpiLDffttu3ygKnbN-56" vertex="1">
          <mxGeometry x="110" y="150" width="60" height="30" as="geometry" />
        </mxCell>
        <mxCell id="PtidpiLDffttu3ygKnbN-24" value="b1" style="text;strokeColor=none;align=center;fillColor=none;html=1;verticalAlign=middle;whiteSpace=wrap;rounded=0;" parent="PtidpiLDffttu3ygKnbN-56" vertex="1">
          <mxGeometry x="110" y="170" width="60" height="30" as="geometry" />
        </mxCell>
        <mxCell id="PtidpiLDffttu3ygKnbN-25" value="" style="endArrow=classic;html=1;rounded=0;entryX=0.676;entryY=0.995;entryDx=0;entryDy=0;entryPerimeter=0;exitX=0.618;exitY=1.004;exitDx=0;exitDy=0;exitPerimeter=0;" parent="PtidpiLDffttu3ygKnbN-56" edge="1">
          <mxGeometry width="50" height="50" relative="1" as="geometry">
            <mxPoint x="80" y="210" as="sourcePoint" />
            <mxPoint x="130" y="210" as="targetPoint" />
          </mxGeometry>
        </mxCell>
        <mxCell id="PtidpiLDffttu3ygKnbN-26" value="c1" style="text;strokeColor=none;align=center;fillColor=none;html=1;verticalAlign=middle;whiteSpace=wrap;rounded=0;" parent="PtidpiLDffttu3ygKnbN-56" vertex="1">
          <mxGeometry x="110" y="190" width="60" height="30" as="geometry" />
        </mxCell>
        <mxCell id="PtidpiLDffttu3ygKnbN-27" value="" style="endArrow=classic;html=1;rounded=0;entryX=0.735;entryY=0.995;entryDx=0;entryDy=0;entryPerimeter=0;" parent="PtidpiLDffttu3ygKnbN-56" edge="1">
          <mxGeometry width="50" height="50" relative="1" as="geometry">
            <mxPoint x="130" y="150" as="sourcePoint" />
            <mxPoint x="80" y="150" as="targetPoint" />
          </mxGeometry>
        </mxCell>
        <mxCell id="PtidpiLDffttu3ygKnbN-28" value="&lt;span style=&quot;color: rgba(0, 0, 0, 0); font-family: monospace; font-size: 0px; text-align: start; text-wrap-mode: nowrap;&quot;&gt;%3CmxGraphModel%3E%3Croot%3E%3CmxCell%20id%3D%220%22%2F%3E%3CmxCell%20id%3D%221%22%20parent%3D%220%22%2F%3E%3CmxCell%20id%3D%222%22%20value%3D%22carry_listen1%22%20style%3D%22text%3BstrokeColor%3Dnone%3Balign%3Dcenter%3BfillColor%3Dnone%3Bhtml%3D1%3BverticalAlign%3Dmiddle%3BwhiteSpace%3Dwrap%3Brounded%3D0%3B%22%20vertex%3D%221%22%20parent%3D%221%22%3E%3CmxGeometry%20x%3D%22460%22%20y%3D%22970%22%20width%3D%2260%22%20height%3D%2230%22%20as%3D%22geometry%22%2F%3E%3C%2FmxCell%3E%3C%2Froot%3E%3C%2FmxGraphModel%3E&lt;/span&gt;" style="text;strokeColor=none;align=center;fillColor=none;html=1;verticalAlign=middle;whiteSpace=wrap;rounded=0;" parent="PtidpiLDffttu3ygKnbN-56" vertex="1">
          <mxGeometry x="120" y="130" width="60" height="30" as="geometry" />
        </mxCell>
        <mxCell id="PtidpiLDffttu3ygKnbN-29" value="" style="endArrow=classic;html=1;rounded=0;entryX=0.735;entryY=0.995;entryDx=0;entryDy=0;entryPerimeter=0;" parent="PtidpiLDffttu3ygKnbN-56" edge="1">
          <mxGeometry width="50" height="50" relative="1" as="geometry">
            <mxPoint x="130" y="260" as="sourcePoint" />
            <mxPoint x="80" y="260" as="targetPoint" />
          </mxGeometry>
        </mxCell>
        <mxCell id="PtidpiLDffttu3ygKnbN-30" value="" style="endArrow=classic;html=1;rounded=0;entryX=0.676;entryY=0.995;entryDx=0;entryDy=0;entryPerimeter=0;" parent="PtidpiLDffttu3ygKnbN-56" edge="1">
          <mxGeometry width="50" height="50" relative="1" as="geometry">
            <mxPoint x="130" y="280" as="sourcePoint" />
            <mxPoint x="80" y="280" as="targetPoint" />
          </mxGeometry>
        </mxCell>
        <mxCell id="PtidpiLDffttu3ygKnbN-31" value="a2" style="text;strokeColor=none;align=center;fillColor=none;html=1;verticalAlign=middle;whiteSpace=wrap;rounded=0;" parent="PtidpiLDffttu3ygKnbN-56" vertex="1">
          <mxGeometry x="110" y="240" width="60" height="30" as="geometry" />
        </mxCell>
        <mxCell id="PtidpiLDffttu3ygKnbN-32" value="b2" style="text;strokeColor=none;align=center;fillColor=none;html=1;verticalAlign=middle;whiteSpace=wrap;rounded=0;" parent="PtidpiLDffttu3ygKnbN-56" vertex="1">
          <mxGeometry x="110" y="260" width="60" height="30" as="geometry" />
        </mxCell>
        <mxCell id="PtidpiLDffttu3ygKnbN-33" value="" style="endArrow=classic;html=1;rounded=0;entryX=0.676;entryY=0.995;entryDx=0;entryDy=0;entryPerimeter=0;exitX=0.618;exitY=1.004;exitDx=0;exitDy=0;exitPerimeter=0;" parent="PtidpiLDffttu3ygKnbN-56" edge="1">
          <mxGeometry width="50" height="50" relative="1" as="geometry">
            <mxPoint x="80" y="300" as="sourcePoint" />
            <mxPoint x="130" y="300" as="targetPoint" />
          </mxGeometry>
        </mxCell>
        <mxCell id="PtidpiLDffttu3ygKnbN-34" value="c2" style="text;strokeColor=none;align=center;fillColor=none;html=1;verticalAlign=middle;whiteSpace=wrap;rounded=0;" parent="PtidpiLDffttu3ygKnbN-56" vertex="1">
          <mxGeometry x="110" y="280" width="60" height="30" as="geometry" />
        </mxCell>
        <mxCell id="PtidpiLDffttu3ygKnbN-35" value="" style="endArrow=classic;html=1;rounded=0;entryX=0.735;entryY=0.995;entryDx=0;entryDy=0;entryPerimeter=0;" parent="PtidpiLDffttu3ygKnbN-56" edge="1">
          <mxGeometry width="50" height="50" relative="1" as="geometry">
            <mxPoint x="130" y="240" as="sourcePoint" />
            <mxPoint x="80" y="240" as="targetPoint" />
          </mxGeometry>
        </mxCell>
        <mxCell id="PtidpiLDffttu3ygKnbN-39" value="a3" style="text;strokeColor=none;align=center;fillColor=none;html=1;verticalAlign=middle;whiteSpace=wrap;rounded=0;" parent="PtidpiLDffttu3ygKnbN-56" vertex="1">
          <mxGeometry x="110" y="330" width="60" height="30" as="geometry" />
        </mxCell>
        <mxCell id="PtidpiLDffttu3ygKnbN-46" value="" style="endArrow=classic;html=1;rounded=0;entryX=0.735;entryY=0.995;entryDx=0;entryDy=0;entryPerimeter=0;" parent="PtidpiLDffttu3ygKnbN-56" edge="1">
          <mxGeometry width="50" height="50" relative="1" as="geometry">
            <mxPoint x="130" y="20" as="sourcePoint" />
            <mxPoint x="80" y="20" as="targetPoint" />
          </mxGeometry>
        </mxCell>
        <mxCell id="PtidpiLDffttu3ygKnbN-47" value="on/off" style="text;strokeColor=none;align=center;fillColor=none;html=1;verticalAlign=middle;whiteSpace=wrap;rounded=0;" parent="PtidpiLDffttu3ygKnbN-56" vertex="1">
          <mxGeometry x="120" width="60" height="30" as="geometry" />
        </mxCell>
        <mxCell id="PtidpiLDffttu3ygKnbN-48" value="carry_listen1" style="text;strokeColor=none;align=center;fillColor=none;html=1;verticalAlign=middle;whiteSpace=wrap;rounded=0;" parent="PtidpiLDffttu3ygKnbN-56" vertex="1">
          <mxGeometry x="140" y="130" width="60" height="30" as="geometry" />
        </mxCell>
        <mxCell id="PtidpiLDffttu3ygKnbN-49" value="carry_listen2" style="text;strokeColor=none;align=center;fillColor=none;html=1;verticalAlign=middle;whiteSpace=wrap;rounded=0;" parent="PtidpiLDffttu3ygKnbN-56" vertex="1">
          <mxGeometry x="140" y="220" width="60" height="30" as="geometry" />
        </mxCell>
        <mxCell id="PtidpiLDffttu3ygKnbN-51" value="" style="endArrow=classic;html=1;rounded=0;entryX=0.735;entryY=0.995;entryDx=0;entryDy=0;entryPerimeter=0;" parent="PtidpiLDffttu3ygKnbN-56" edge="1">
          <mxGeometry width="50" height="50" relative="1" as="geometry">
            <mxPoint x="130" y="350" as="sourcePoint" />
            <mxPoint x="80" y="350" as="targetPoint" />
          </mxGeometry>
        </mxCell>
        <mxCell id="PtidpiLDffttu3ygKnbN-52" value="" style="endArrow=classic;html=1;rounded=0;entryX=0.676;entryY=0.995;entryDx=0;entryDy=0;entryPerimeter=0;" parent="PtidpiLDffttu3ygKnbN-56" edge="1">
          <mxGeometry width="50" height="50" relative="1" as="geometry">
            <mxPoint x="130" y="370" as="sourcePoint" />
            <mxPoint x="80" y="370" as="targetPoint" />
          </mxGeometry>
        </mxCell>
        <mxCell id="PtidpiLDffttu3ygKnbN-53" value="b3" style="text;strokeColor=none;align=center;fillColor=none;html=1;verticalAlign=middle;whiteSpace=wrap;rounded=0;" parent="PtidpiLDffttu3ygKnbN-56" vertex="1">
          <mxGeometry x="110" y="350" width="60" height="30" as="geometry" />
        </mxCell>
        <mxCell id="PtidpiLDffttu3ygKnbN-54" value="" style="endArrow=classic;html=1;rounded=0;entryX=0.676;entryY=0.995;entryDx=0;entryDy=0;entryPerimeter=0;exitX=0.618;exitY=1.004;exitDx=0;exitDy=0;exitPerimeter=0;" parent="PtidpiLDffttu3ygKnbN-56" edge="1">
          <mxGeometry width="50" height="50" relative="1" as="geometry">
            <mxPoint x="80" y="390" as="sourcePoint" />
            <mxPoint x="130" y="390" as="targetPoint" />
          </mxGeometry>
        </mxCell>
        <mxCell id="PtidpiLDffttu3ygKnbN-55" value="c3" style="text;strokeColor=none;align=center;fillColor=none;html=1;verticalAlign=middle;whiteSpace=wrap;rounded=0;" parent="PtidpiLDffttu3ygKnbN-56" vertex="1">
          <mxGeometry x="110" y="370" width="60" height="30" as="geometry" />
        </mxCell>
        <mxCell id="jTL5pCVjqt50FXsb-qQc-3" value="" style="endArrow=classic;startArrow=classic;html=1;rounded=0;entryX=0;entryY=1;entryDx=0;entryDy=0;exitX=1;exitY=0;exitDx=0;exitDy=0;" edge="1" parent="1" source="U6tUr1Qk7Yr2OwYIVVNg-15">
          <mxGeometry width="50" height="50" relative="1" as="geometry">
            <mxPoint x="537.14" y="-85" as="sourcePoint" />
            <mxPoint x="580" y="-155" as="targetPoint" />
          </mxGeometry>
        </mxCell>
      </root>
    </mxGraphModel>
  </diagram>
</mxfile>
